<?xml version="1.0" encoding="iso-8859-1"?>
<!DOCTYPE svg PUBLIC "-//W3C//DTD SVG 1.1//EN" "http://www.w3.org/Graphics/SVG/1.1/DTD/svg11.dtd">
<svg 
 version="1.1" xmlns="http://www.w3.org/2000/svg" xmlns:xlink="http://www.w3.org/1999/xlink" x="0px" y="0px" width="512px"
	 height="512px" viewBox="0 0 512 512" enable-background="new 0 0 512 512" xml:space="preserve"
><g id="e6c6b53d3c8160b22dad35a0f70b73d9"><g></g><path display="inline" d="M461.668,189.169c-7.727-23.793,15.458-63.563,1.044-83.366c-14.559-20.005-59.642-10.174-79.644-24.729
		c-19.804-14.416-24.303-60.405-48.098-68.13c-2.25-0.729-4.57-1.061-6.953-1.061c-21.94,0.005-49.071,27.925-72.018,27.925
		c-22.951,0-50.069-27.925-72.018-27.925c-2.383,0-4.703,0.331-6.953,1.061c-23.795,7.725-28.294,53.714-48.097,68.13
		C108.93,95.629,63.847,85.8,49.288,105.803c-14.41,19.805,8.77,59.57,1.043,83.366C42.879,212.124,0.5,230.559,0.5,256
		c0,25.44,42.379,43.879,49.828,66.834c7.73,23.791-15.453,63.56-1.04,83.362c14.559,20.002,59.642,10.176,79.64,24.734
		c19.807,14.414,24.307,60.399,48.102,68.125c2.25,0.732,4.57,1.061,6.953,1.061c21.94,0,49.071-27.924,72.018-27.924
		c22.951,0,50.068,27.924,72.018,27.924c2.383,0,4.703-0.328,6.953-1.061c23.795-7.726,28.294-53.711,48.098-68.129
		c20.002-14.555,65.085-4.729,79.644-24.73c14.409-19.803-8.771-59.566-1.044-83.362C469.12,299.879,511.5,281.44,511.5,256
		C511.5,230.559,469.12,212.124,461.668,189.169z M462.471,268.803c-12.712,11.606-27.122,24.768-33.201,43.511
		c-6.255,19.245-2.325,38.762,1.144,55.981c1.002,4.974,2.362,11.735,2.882,16.589c-4.937,1.048-12.093,1.867-16.942,2.425
		c-17.378,1.987-37.077,4.245-53.333,16.076c-16.105,11.728-24.252,29.65-31.438,45.47c-2.042,4.487-5.053,11.12-7.598,15.528
		c-4.362-1.988-10.167-5.257-14.463-7.677c-15.457-8.708-32.981-18.581-53.521-18.581s-38.063,9.873-53.524,18.581
		c-4.292,2.42-10.097,5.688-14.459,7.677c-2.545-4.408-5.556-11.037-7.598-15.528c-7.186-15.819-15.333-33.747-31.443-45.47
		c-16.251-11.826-35.951-14.089-53.329-16.076c-4.849-0.558-12.005-1.377-16.942-2.429c0.516-4.85,1.88-11.611,2.878-16.585
		c3.468-17.225,7.398-36.74,1.148-55.978c-6.08-18.742-20.494-31.904-33.202-43.519c-3.893-3.552-9.74-8.892-13.121-12.799
		c3.385-3.909,9.232-9.25,13.121-12.802c12.712-11.608,27.122-24.769,33.202-43.509c6.254-19.247,2.324-38.764-1.144-55.981
		c-1.002-4.979-2.362-11.735-2.882-16.591c4.937-1.048,12.093-1.867,16.942-2.423c17.378-1.991,37.078-4.247,53.333-16.078
		c16.106-11.726,24.252-29.652,31.438-45.47c2.042-4.487,5.052-11.118,7.598-15.528c4.362,1.986,10.167,5.257,14.463,7.675
		c15.458,8.71,32.981,18.582,53.521,18.582s38.063-9.872,53.524-18.582c4.296-2.418,10.097-5.687,14.459-7.673
		c2.545,4.41,5.556,11.039,7.598,15.526c7.187,15.817,15.333,33.744,31.442,45.474c16.252,11.827,35.951,14.083,53.329,16.072
		c4.85,0.558,12.006,1.377,16.942,2.425c-0.516,4.855-1.88,11.612-2.882,16.593c-3.464,17.218-7.398,36.734-1.148,55.978
		c6.084,18.742,20.494,31.902,33.206,43.511c3.889,3.552,9.735,8.893,13.12,12.802C472.206,259.907,466.359,265.251,462.471,268.803
		z M224.944,240.953c10.563-11.1,15.848-26.096,15.848-44.987c0-18.352-4.778-32.603-14.326-42.741
		c-9.557-10.139-22.814-15.208-39.785-15.208c-17.715,0-31.884,5.602-42.504,16.809c-10.617,11.203-15.927,26.361-15.927,45.466
		c0,17.503,4.99,31.43,14.971,41.78c9.977,10.351,23.13,15.528,39.46,15.528C200.288,257.6,214.377,252.052,224.944,240.953z
		 M162.35,198.689c0-21.666,7.789-32.499,23.371-32.499c14.41,0,21.612,10.405,21.612,31.219c0,21.346-7.577,32.016-22.73,32.016
		C169.765,229.425,162.35,219.179,162.35,198.689z M329.64,254.397c-17.716,0-31.884,5.605-42.501,16.809
		c-10.62,11.207-15.931,26.361-15.931,45.466c0,17.507,4.99,31.434,14.971,41.784c9.976,10.351,23.13,15.528,39.46,15.528
		c17.607,0,31.696-5.602,42.264-16.809c10.566-11.208,15.848-26.257,15.848-45.146c0-18.355-4.749-32.553-14.247-42.583
		S346.719,254.397,329.64,254.397z M327.56,345.811c-15.05,0-22.572-10.247-22.572-30.74c0-21.662,7.735-32.495,23.213-32.495
		c6.616,0,11.952,2.72,16.011,8.164c4.055,5.443,6.079,13.128,6.079,23.05C350.29,335.14,342.714,345.811,327.56,345.811z
		 M350.29,141.215l-149.52,229.567h-39.061l149.2-229.567H350.29z"></path></g></svg>