<?xml version="1.0" encoding="UTF-8" standalone="no"?>
<svg width="60px" height="60px" viewBox="0 0 60 60" version="1.1" xmlns="http://www.w3.org/2000/svg" xmlns:xlink="http://www.w3.org/1999/xlink" xmlns:sketch="http://www.bohemiancoding.com/sketch/ns">
    <!-- Generator: Sketch 3.2.2 (9983) - http://www.bohemiancoding.com/sketch -->
    <title>FilePDF</title>
    <desc>Created with Sketch.</desc>
    <defs></defs>
    <g id="stroked" stroke="none" stroke-width="1" fill="none" fill-rule="evenodd" sketch:type="MSPage">
        <g id="Formats" sketch:type="MSLayerGroup" transform="translate(4.000000, -953.000000)" stroke="#535353" stroke-width="2" stroke-linecap="round" stroke-linejoin="round">
            <g id="Filepdf" transform="translate(7.000000, 958.000000)" sketch:type="MSShapeGroup">
                <path d="M37,21.1956522 L37,51 L0,51 L0,21.1956522 L0,0 L27.2058824,0 L37,9.7826087 L37,21.1956522 Z" id="Rectangle-1948"></path>
                <path d="M27,10 L37,10 L27,0 L27,10 Z" id="Path-4339"></path>
                <path d="M23.7176069,34.4254345 C23.7176069,34.4254345 8.76128568,38.5799682 5.85311211,41.9035951 C2.94493853,45.227222 7.09947221,50.6281158 14.5776328,33.1790744 C22.0557935,15.7300329 16.6548999,14.4836728 14.9930862,16.976393 C13.3312726,19.4691132 20.393981,34.425435 26.6257805,36.5027013 C32.8575801,38.5799676 34.9348473,33.1790734 29.9494075,33.1790744 C24.9639677,33.1790754 23.7176069,34.4254345 23.7176069,34.4254345 Z" id="Path-4809"></path>
            </g>
        </g>
    </g>
</svg>